<svg width="1080" height="1080" viewBox="0 0 1080 1080" fill="none" xmlns="http://www.w3.org/2000/svg">
<rect width="1080" height="1080" fill="white"/>
<rect x="415" y="230" width="250" height="234" rx="68" fill="white"/>
<g filter="url(#filter0_f)">
<ellipse cx="540" cy="347" rx="66" ry="62" fill="url(#paint0_linear)"/>
</g>
<ellipse cx="540" cy="347.5" rx="39" ry="37.5" fill="white"/>
<g filter="url(#filter1_f)">
<ellipse cx="540" cy="589" rx="273" ry="179" fill="url(#paint1_linear)"/>
</g>
<ellipse cx="542.5" cy="589" rx="127.5" ry="110" fill="white"/>
<ellipse cx="619.5" cy="272" rx="13.5" ry="13" fill="#8002B4"/>
<g filter="url(#filter2_f)">
<ellipse cx="103" cy="983.5" rx="71" ry="67.5" fill="url(#paint2_linear)"/>
</g>
<ellipse cx="141" cy="946" rx="33" ry="30" fill="white"/>
<g filter="url(#filter3_f)">
<ellipse cx="988" cy="98.5" rx="71" ry="67.5" fill="url(#paint3_linear)"/>
</g>
<ellipse cx="955" cy="129" rx="33" ry="30" fill="white"/>
<path d="M145.235 909.033C323.01 941.058 318.476 920.195 223.604 850.661C199.341 787.904 578.225 971.865 323.059 732.714" stroke="#AE02A9"/>
<path d="M693.121 422.617C878.266 400.768 879.523 381.809 796.361 342.413C788.508 288.554 1148.59 354.635 940.464 197.921" stroke="#FF1E1E"/>
<defs>
<filter id="filter0_f" x="470" y="281" width="140" height="132" filterUnits="userSpaceOnUse" color-interpolation-filters="sRGB">
<feFlood flood-opacity="0" result="BackgroundImageFix"/>
<feBlend mode="normal" in="SourceGraphic" in2="BackgroundImageFix" result="shape"/>
<feGaussianBlur stdDeviation="2" result="effect1_foregroundBlur"/>
</filter>
<filter id="filter1_f" x="263" y="406" width="554" height="366" filterUnits="userSpaceOnUse" color-interpolation-filters="sRGB">
<feFlood flood-opacity="0" result="BackgroundImageFix"/>
<feBlend mode="normal" in="SourceGraphic" in2="BackgroundImageFix" result="shape"/>
<feGaussianBlur stdDeviation="2" result="effect1_foregroundBlur"/>
</filter>
<filter id="filter2_f" x="28" y="912" width="150" height="143" filterUnits="userSpaceOnUse" color-interpolation-filters="sRGB">
<feFlood flood-opacity="0" result="BackgroundImageFix"/>
<feBlend mode="normal" in="SourceGraphic" in2="BackgroundImageFix" result="shape"/>
<feGaussianBlur stdDeviation="2" result="effect1_foregroundBlur"/>
</filter>
<filter id="filter3_f" x="913" y="27" width="150" height="143" filterUnits="userSpaceOnUse" color-interpolation-filters="sRGB">
<feFlood flood-opacity="0" result="BackgroundImageFix"/>
<feBlend mode="normal" in="SourceGraphic" in2="BackgroundImageFix" result="shape"/>
<feGaussianBlur stdDeviation="2" result="effect1_foregroundBlur"/>
</filter>
<linearGradient id="paint0_linear" x1="590.679" y1="335.929" x2="489.659" y2="374.246" gradientUnits="userSpaceOnUse">
<stop stop-color="#AE02AA"/>
<stop offset="1" stop-color="#F05A1D"/>
</linearGradient>
<linearGradient id="paint1_linear" x1="749.625" y1="557.036" x2="380.626" y2="757.565" gradientUnits="userSpaceOnUse">
<stop stop-color="#AE02AA"/>
<stop offset="1" stop-color="#F05A1D"/>
</linearGradient>
<linearGradient id="paint2_linear" x1="157.518" y1="971.446" x2="48.5208" y2="1012.3" gradientUnits="userSpaceOnUse">
<stop stop-color="#AE02AA"/>
<stop offset="1" stop-color="#F05A1D"/>
</linearGradient>
<linearGradient id="paint3_linear" x1="1042.52" y1="86.4464" x2="933.521" y2="127.298" gradientUnits="userSpaceOnUse">
<stop stop-color="#AE02AA"/>
<stop offset="1" stop-color="#F05A1D"/>
</linearGradient>
</defs>
</svg>
